<?xml version="1.0" standalone="no"?>
<!DOCTYPE svg PUBLIC "-//W3C//DTD SVG 20010904//EN"
 "http://www.w3.org/TR/2001/REC-SVG-20010904/DTD/svg10.dtd">
<svg version="1.0" xmlns="http://www.w3.org/2000/svg"
 width="1024.000000pt" height="1024.000000pt" viewBox="0 0 1024.000000 1024.000000"
 preserveAspectRatio="xMidYMid meet">
<metadata>
Created by potrace 1.14, written by Peter Selinger 2001-2017
</metadata>
<g transform="translate(0.000000,1024.000000) scale(0.100000,-0.100000)"
fill="#000000" stroke="none">
<path d="M5015 7763 c-523 -29 -1046 -268 -1422 -650 -280 -284 -496 -679
-562 -1027 l-17 -91 -110 -12 c-304 -33 -616 -147 -838 -305 -121 -86 -330
-303 -411 -427 -120 -182 -215 -414 -256 -626 -20 -100 -18 -431 4 -555 34
-197 136 -446 256 -625 228 -342 572 -576 996 -678 l90 -22 2345 -3 c2120 -3
2354 -1 2443 13 175 29 372 98 526 185 365 206 639 556 760 971 47 161 61 264
61 437 0 194 -19 318 -75 489 -143 436 -451 790 -848 978 -186 88 -394 145
-592 165 -60 6 -110 12 -111 13 -1 1 -9 38 -19 82 -82 378 -305 778 -590 1059
-364 358 -839 578 -1350 626 -106 10 -150 10 -280 3z m418 -583 c135 -29 245
-65 356 -116 268 -125 535 -374 661 -616 49 -93 53 -142 14 -187 l-26 -31
-192 0 -192 0 -59 80 c-241 330 -648 495 -1048 425 -371 -65 -625 -264 -794
-625 -46 -99 -95 -152 -161 -174 -63 -22 -108 -20 -168 8 -82 38 -134 116
-134 203 0 45 54 193 106 293 126 237 346 462 576 588 145 79 358 148 533 171
117 16 415 5 528 -19z m266 -1306 c114 -21 277 -76 381 -130 339 -175 620
-557 685 -932 18 -103 20 -403 3 -453 -50 -149 -221 -219 -345 -143 -58 36
-108 106 -122 174 -6 28 -11 119 -11 203 0 146 -1 156 -34 249 -55 162 -148
292 -278 391 -154 116 -299 167 -477 167 -219 -1 -398 -69 -533 -205 -57 -57
-108 -137 -108 -169 0 -9 24 -34 53 -56 174 -131 348 -443 335 -599 l-3 -36
-232 -3 -233 -2 -34 69 c-118 234 -375 378 -636 358 -241 -20 -433 -143 -538
-345 l-43 -82 -230 0 c-265 0 -249 -7 -231 102 27 154 122 333 250 470 217
230 484 349 797 352 72 0 162 -3 202 -7 66 -7 72 -7 78 12 14 44 112 181 184
255 145 150 308 253 501 314 225 71 404 85 619 46z m-2845 -492 c54 -32 67
-73 64 -197 -4 -142 -16 -168 -116 -242 -76 -58 -145 -140 -187 -223 -36 -72
-48 -146 -43 -269 4 -106 6 -114 48 -198 56 -115 181 -244 280 -290 143 -68
-19 -63 2261 -63 2240 0 2114 -3 2229 53 45 21 123 94 192 179 67 83 184 118
275 83 72 -28 130 -87 149 -153 30 -102 3 -196 -88 -308 -119 -147 -298 -252
-538 -316 l-85 -23 -2075 -3 c-1444 -2 -2100 1 -2158 8 -167 22 -365 97 -502
190 -82 56 -208 176 -271 259 -69 91 -144 248 -175 366 -97 367 57 804 366
1039 160 122 287 159 374 108z"/>
</g>
</svg>
